<?xml version="1.0" encoding="UTF-8" standalone="no"?>
<svg
  xmlns:dc="http://purl.org/dc/elements/1.1/"
  xmlns:cc="http://creativecommons.org/ns#"
  xmlns:rdf="http://www.w3.org/1999/02/22-rdf-syntax-ns#"
  xmlns="http://www.w3.org/2000/svg"
  viewBox="0 0 133.33333 133.33333"
  height="133.33333"
  width="133.33333"
  xml:space="preserve"
  id="svg2"
  version="1.1"><metadata
     id="metadata8"><rdf:RDF><cc:Work
         rdf:about=""><dc:format>image/svg+xml</dc:format><dc:type
           rdf:resource="http://purl.org/dc/dcmitype/StillImage" /></cc:Work></rdf:RDF></metadata><defs
     id="defs6" /><g
     transform="matrix(1.3333333,0,0,-1.3333333,0,133.33333)"
     id="g10"><g
       transform="scale(0.1)"
       id="g12"><path
         id="path14"
         style="fill:#cc092f;fill-opacity:1;fill-rule:nonzero;stroke:none"
         d="m 393.867,759.211 26.465,7.82 c 25.723,7.621 52.344,11.481 79.102,11.481 72.839,0.164 142.824,-28.395 194.746,-79.485 52.058,-50.73 82.082,-119.906 83.586,-192.582 l 0.203,-8.308 104.426,-82.449 h 0.015 l 116.477,91.968 -0.282,8.907 C 994.363,646.477 940.547,767.914 847.102,858.559 753.43,949.414 629.973,999.445 499.453,999.445 436.348,999.547 373.801,987.629 315.156,964.328 l -41.25,-16.383 139.387,-55.484 -19.426,-133.25" /><path
         id="path16"
         style="fill:#cc092f;fill-opacity:1;fill-rule:nonzero;stroke:none"
         d="m 882.383,378.379 -105.735,83.484 -6.433,-26.875 C 740.156,309.293 628.816,221.504 499.434,221.504 c -46.731,0.004 -92.715,11.754 -133.719,34.176 l -7.297,3.992 -123.477,-49.16 21.438,-146.9768 7.851,-4.1993 C 336.633,20.7578 417.402,0.570313 499.434,0.558594 620.051,0.523438 736.594,44.1719 827.512,123.43 917.48,201.891 976.477,309.836 993.605,427.355 L 1000,471.246 882.383,378.379" /><path
         id="path18"
         style="fill:#cc092f;fill-opacity:1;fill-rule:nonzero;stroke:none"
         d="m 327.852,279.016 -20.032,18.996 c -56.023,53.176 -86.875,124.914 -86.875,201.992 0,97.965 50,186.934 133.782,237.996 l 7.089,4.309 19.168,131.496 -137.976,54.91 -7.57,-4.711 C 88.0195,832.008 0,673.508 0,499.988 0,346.586 69.043,203.863 189.414,108.441 l 34.863,-27.6363 -21.64,148.3673 125.215,49.844" /><path
         id="path20"
         style="fill:#cc092f;fill-opacity:1;fill-rule:nonzero;stroke:none"
         d="m 573.137,530.066 c 0,-16.242 -10.84,-26.82 -32.492,-26.82 h -22.879 v 53.387 h 24.363 c 20.156,0 31.008,-10.578 31.008,-26.567 z m -89.563,57.313 V 412.703 h 34.192 V 472.5 h 27.324 c 38.367,0 63.953,18.441 63.953,56.824 0,33.457 -18.457,58.055 -60.762,58.055 h -64.707" /><path
         id="path22"
         style="fill:#cc092f;fill-opacity:1;fill-rule:nonzero;stroke:none"
         d="m 355.383,477.152 23.125,68.661 h 0.484 l 23.371,-68.661 z m 6.637,110.227 -64.707,-174.676 h 36.171 l 11.809,34.949 h 67.156 l 11.821,-34.949 h 36.16 L 395.234,587.379 H 362.02" /><path
         id="path24"
         style="fill:#cc092f;fill-opacity:1;fill-rule:nonzero;stroke:none"
         d="M 673.027,412.703 V 587.379 H 638.34 V 412.703 h 34.687" /></g></g></svg>
